<svg xmlns="http://www.w3.org/2000/svg" viewBox="0 0 64 64">
  <defs>
    <linearGradient id="coverL" x1="0" y1="0" x2="1" y2="1">
      <stop offset="0%" stop-color="#7f5bff"/>
      <stop offset="100%" stop-color="#4e2fd1"/>
    </linearGradient>
    <linearGradient id="coverR" x1="0" y1="0" x2="1" y2="1">
      <stop offset="0%" stop-color="#5b3bdb"/>
      <stop offset="100%" stop-color="#2f1f8f"/>
    </linearGradient>
    <linearGradient id="page" x1="0" y1="0" x2="0" y2="1">
      <stop offset="0%" stop-color="#f6fbff"/>
      <stop offset="100%" stop-color="#d8e8ff"/>
    </linearGradient>
  </defs>

  <rect x="2" y="2" width="60" height="60" rx="14" fill="#0f1220"/>

  <path d="M11 24c8-5 16-5 21 0v22c-5-5-13-5-21 0z" fill="url(#coverL)" stroke="#b8a4ff" stroke-width="1.5"/>
  <path d="M53 24c-8-5-16-5-21 0v22c5-5 13-5 21 0z" fill="url(#coverR)" stroke="#b8a4ff" stroke-width="1.5"/>

  <path d="M14 26c7-3.8 12.5-3.8 18 0v17.5c-5.5-3.8-11-3.8-18 0z" fill="url(#page)"/>
  <path d="M50 26c-7-3.8-12.5-3.8-18 0v17.5c5.5-3.8 11-3.8 18 0z" fill="url(#page)"/>

  <path d="M32 17l1.9 4.2 4.6.5-3.4 3 1 4.4-4.1-2.3-4.1 2.3 1-4.4-3.4-3 4.6-.5z" fill="#7ef6ff"/>
  <circle cx="19" cy="16" r="1.2" fill="#7ef6ff"/>
  <circle cx="45" cy="14" r="1" fill="#bdb0ff"/>
  <circle cx="41" cy="19" r="0.9" fill="#7ef6ff"/>
</svg>
