<svg xmlns="http://www.w3.org/2000/svg" viewBox="0 0 56 64" width="56" height="64">

  <!-- Sombra sutil -->
  <ellipse cx="28" cy="61" rx="14" ry="3" fill="#000" opacity="0.15"/>

  <!-- Pernas -->
  <rect x="14" y="50" width="9" height="10" rx="4" fill="#22C55E"/>
  <rect x="33" y="50" width="9" height="10" rx="4" fill="#22C55E"/>

  <!-- Corpo principal -->
  <ellipse cx="28" cy="36" rx="22" ry="22" fill="#4ADE80"/>
  <!-- Parte inferior achatada -->
  <rect x="6" y="36" width="44" height="18" rx="6" fill="#4ADE80"/>

  <!-- Highlight verde claro no topo -->
  <ellipse cx="22" cy="20" rx="8" ry="5" fill="#86EFAC" opacity="0.75"/>

  <!-- Brilho branco menor -->
  <ellipse cx="20" cy="18" rx="3" ry="2" fill="#fff" opacity="0.55"/>

  <!-- Bochechas rosadas -->
  <ellipse cx="16" cy="36" rx="4" ry="2.5" fill="#F9A8D4" opacity="0.55"/>
  <ellipse cx="40" cy="36" rx="4" ry="2.5" fill="#F9A8D4" opacity="0.55"/>

  <!-- Olho esquerdo -->
  <ellipse cx="19" cy="31" rx="4" ry="4.5" fill="#1E3A2F"/>
  <ellipse cx="20.5" cy="29.5" rx="1.2" ry="1.2" fill="#fff"/>

  <!-- Olho direito -->
  <ellipse cx="37" cy="31" rx="4" ry="4.5" fill="#1E3A2F"/>
  <ellipse cx="38.5" cy="29.5" rx="1.2" ry="1.2" fill="#fff"/>

  <!-- Boca sorrindo -->
  <path d="M21 38 Q28 44 35 38" stroke="#1E3A2F" stroke-width="2" fill="none" stroke-linecap="round"/>

  <!-- Antena fofa no topo -->
  <line x1="28" y1="14" x2="28" y2="8" stroke="#22C55E" stroke-width="2.5" stroke-linecap="round"/>
  <circle cx="28" cy="7" r="2.5" fill="#86EFAC"/>

</svg>
